<svg width="36" height="44" viewBox="0 0 36 44" fill="none" xmlns="http://www.w3.org/2000/svg">
<path d="M11.2532 6.24902H6.75317C5.5597 6.24902 4.41511 6.72313 3.57119 7.56704C2.72728 8.41096 2.25317 9.55555 2.25317 10.749V37.749C2.25317 38.9425 2.72728 40.0871 3.57119 40.931C4.41511 41.7749 5.5597 42.249 6.75317 42.249H29.2532C30.4466 42.249 31.5912 41.7749 32.4352 40.931C33.2791 40.0871 33.7532 38.9425 33.7532 37.749V10.749C33.7532 9.55555 33.2791 8.41096 32.4352 7.56704C31.5912 6.72313 30.4466 6.24902 29.2532 6.24902H24.7532M11.2532 6.24902C11.2532 7.4425 11.7273 8.58709 12.5712 9.431C13.4151 10.2749 14.5597 10.749 15.7532 10.749H20.2532C21.4466 10.749 22.5912 10.2749 23.4352 9.431C24.2791 8.58709 24.7532 7.4425 24.7532 6.24902M11.2532 6.24902C11.2532 5.05555 11.7273 3.91096 12.5712 3.06704C13.4151 2.22313 14.5597 1.74902 15.7532 1.74902H20.2532C21.4466 1.74902 22.5912 2.22313 23.4352 3.06704C24.2791 3.91096 24.7532 5.05555 24.7532 6.24902M18.0032 21.999H24.7532M18.0032 30.999H24.7532M11.2532 21.999H11.2757M11.2532 30.999H11.2757" stroke="white" stroke-width="3" stroke-linecap="round" stroke-linejoin="round"/>
</svg>
