<svg width="34" height="34" viewBox="0 0 34 34" fill="none" xmlns="http://www.w3.org/2000/svg">
<mask id="path-1-inside-1_211_2338" fill="white">
<path d="M20.0112 16.7647C19.8436 16.7647 19.6879 16.7186 19.5497 16.6445V16.6464C19.5497 16.9101 19.4472 17.1578 19.2612 17.3433C19.0753 17.5292 18.8278 17.6317 18.5644 17.6317C18.3943 17.6317 18.2368 17.5845 18.097 17.5084C18.0829 17.7496 17.9865 17.9751 17.8145 18.1473C17.6285 18.3333 17.381 18.4358 17.1175 18.4358C16.5938 18.4358 16.1686 18.0242 16.1379 17.5082C15.9759 17.5958 15.7927 17.6417 15.6038 17.6296C15.0887 17.5958 14.6853 17.1507 14.6853 16.6161V12.1845L14.1807 13.0587C13.9885 13.3931 13.6287 13.6007 13.2413 13.6007C13.0526 13.6007 12.8661 13.5512 12.701 13.4565C12.4953 13.3373 12.3482 13.1459 12.287 12.917C12.2255 12.6879 12.2574 12.4483 12.3763 12.243C12.3764 12.243 14.0273 9.38408 14.128 9.20847C14.14 9.18206 14.1741 9.10548 14.2032 9.04021C14.2309 8.97789 14.2546 8.91394 14.2774 8.84965C14.7753 7.44409 16.0081 6.57099 17.4948 6.57099C19.4255 6.57099 20.9962 8.2742 20.9962 10.3678L20.9964 15.7793C20.9964 16.0426 20.894 16.2901 20.7082 16.4762C20.5223 16.6622 20.2748 16.7647 20.0111 16.7647L20.0112 16.7647ZM17.4948 7.09453C16.2173 7.09453 15.1991 7.81612 14.7709 9.02474C14.7435 9.10149 14.715 9.17824 14.6817 9.25302C14.5851 9.46966 14.5851 9.46965 14.5579 9.50081L14.5543 9.49769C14.4195 9.75205 14.019 10.4456 12.8296 12.505C12.7807 12.5895 12.7677 12.6875 12.7927 12.7813C12.8179 12.8751 12.8784 12.9542 12.9622 13.0025C13.2223 13.1519 13.5785 13.0555 13.7268 12.7972L14.7204 11.0769C14.7798 10.9744 14.8998 10.9241 15.0149 10.9552C15.1294 10.9859 15.2089 11.0897 15.2089 11.2081V16.6163C15.2089 16.8714 15.4015 17.0917 15.6381 17.1072C15.7746 17.1145 15.9018 17.0687 15.9974 16.9733C16.0843 16.8863 16.1322 16.7706 16.1322 16.6467V13.1098C16.1322 12.9651 16.2495 12.8479 16.3941 12.8479C16.5388 12.8479 16.656 12.965 16.656 13.1098L16.6559 17.4507C16.6559 17.7052 16.863 17.9123 17.1175 17.9123C17.2411 17.9123 17.3573 17.8645 17.4443 17.7775C17.5313 17.6905 17.5791 17.5744 17.5791 17.4507V13.1098C17.5791 12.9651 17.6962 12.8479 17.841 12.8479C17.9857 12.8479 18.1029 12.9649 18.1029 13.1098L18.1028 16.6061V16.6467C18.1028 16.9011 18.3099 17.1082 18.5646 17.1082C18.6881 17.1082 18.8038 17.0602 18.8914 16.9729C18.9783 16.8862 19.0262 16.7704 19.0262 16.6466V13.1096C19.0262 12.9649 19.1433 12.8477 19.2881 12.8477C19.4327 12.8477 19.55 12.9648 19.55 13.1096L19.5497 15.7794C19.5497 16.0341 19.7568 16.2412 20.0111 16.2412C20.135 16.2412 20.2507 16.1931 20.3377 16.1064C20.4249 16.0191 20.4726 15.903 20.4726 15.7794L20.4728 10.3679C20.4728 8.56316 19.1369 7.09458 17.4948 7.09458L17.4948 7.09453Z"/>
</mask>
<path d="M20.0112 16.7647C19.8436 16.7647 19.6879 16.7186 19.5497 16.6445V16.6464C19.5497 16.9101 19.4472 17.1578 19.2612 17.3433C19.0753 17.5292 18.8278 17.6317 18.5644 17.6317C18.3943 17.6317 18.2368 17.5845 18.097 17.5084C18.0829 17.7496 17.9865 17.9751 17.8145 18.1473C17.6285 18.3333 17.381 18.4358 17.1175 18.4358C16.5938 18.4358 16.1686 18.0242 16.1379 17.5082C15.9759 17.5958 15.7927 17.6417 15.6038 17.6296C15.0887 17.5958 14.6853 17.1507 14.6853 16.6161V12.1845L14.1807 13.0587C13.9885 13.3931 13.6287 13.6007 13.2413 13.6007C13.0526 13.6007 12.8661 13.5512 12.701 13.4565C12.4953 13.3373 12.3482 13.1459 12.287 12.917C12.2255 12.6879 12.2574 12.4483 12.3763 12.243C12.3764 12.243 14.0273 9.38408 14.128 9.20847C14.14 9.18206 14.1741 9.10548 14.2032 9.04021C14.2309 8.97789 14.2546 8.91394 14.2774 8.84965C14.7753 7.44409 16.0081 6.57099 17.4948 6.57099C19.4255 6.57099 20.9962 8.2742 20.9962 10.3678L20.9964 15.7793C20.9964 16.0426 20.894 16.2901 20.7082 16.4762C20.5223 16.6622 20.2748 16.7647 20.0111 16.7647L20.0112 16.7647ZM17.4948 7.09453C16.2173 7.09453 15.1991 7.81612 14.7709 9.02474C14.7435 9.10149 14.715 9.17824 14.6817 9.25302C14.5851 9.46966 14.5851 9.46965 14.5579 9.50081L14.5543 9.49769C14.4195 9.75205 14.019 10.4456 12.8296 12.505C12.7807 12.5895 12.7677 12.6875 12.7927 12.7813C12.8179 12.8751 12.8784 12.9542 12.9622 13.0025C13.2223 13.1519 13.5785 13.0555 13.7268 12.7972L14.7204 11.0769C14.7798 10.9744 14.8998 10.9241 15.0149 10.9552C15.1294 10.9859 15.2089 11.0897 15.2089 11.2081V16.6163C15.2089 16.8714 15.4015 17.0917 15.6381 17.1072C15.7746 17.1145 15.9018 17.0687 15.9974 16.9733C16.0843 16.8863 16.1322 16.7706 16.1322 16.6467V13.1098C16.1322 12.9651 16.2495 12.8479 16.3941 12.8479C16.5388 12.8479 16.656 12.965 16.656 13.1098L16.6559 17.4507C16.6559 17.7052 16.863 17.9123 17.1175 17.9123C17.2411 17.9123 17.3573 17.8645 17.4443 17.7775C17.5313 17.6905 17.5791 17.5744 17.5791 17.4507V13.1098C17.5791 12.9651 17.6962 12.8479 17.841 12.8479C17.9857 12.8479 18.1029 12.9649 18.1029 13.1098L18.1028 16.6061V16.6467C18.1028 16.9011 18.3099 17.1082 18.5646 17.1082C18.6881 17.1082 18.8038 17.0602 18.8914 16.9729C18.9783 16.8862 19.0262 16.7704 19.0262 16.6466V13.1096C19.0262 12.9649 19.1433 12.8477 19.2881 12.8477C19.4327 12.8477 19.55 12.9648 19.55 13.1096L19.5497 15.7794C19.5497 16.0341 19.7568 16.2412 20.0111 16.2412C20.135 16.2412 20.2507 16.1931 20.3377 16.1064C20.4249 16.0191 20.4726 15.903 20.4726 15.7794L20.4728 10.3679C20.4728 8.56316 19.1369 7.09458 17.4948 7.09458L17.4948 7.09453Z" fill="#4CAF4F"/>
<path d="M20.0112 16.7647V15.8366H23.2901L20.4976 17.5551L20.0112 16.7647ZM19.5497 16.6445H18.6216V15.0937L19.9883 15.8265L19.5497 16.6445ZM19.2612 17.3433L18.605 16.687L18.6058 16.6861L19.2612 17.3433ZM18.097 17.5084L17.1705 17.4542L17.2559 15.9936L18.5409 16.6933L18.097 17.5084ZM17.8145 18.1473L18.4711 18.8032L18.4707 18.8036L17.8145 18.1473ZM16.1379 17.5082L15.6967 16.6918L16.978 15.9992L17.0644 17.4532L16.1379 17.5082ZM15.6038 17.6296L15.5443 18.5558L15.5431 18.5557L15.6038 17.6296ZM14.6853 12.1845L13.8815 11.7205L15.6134 8.7201V12.1845H14.6853ZM14.1807 13.0587L13.376 12.5962L13.3769 12.5947L14.1807 13.0587ZM12.701 13.4565L12.2395 14.2618L12.2355 14.2595L12.701 13.4565ZM12.287 12.917L13.1834 12.6764L13.1837 12.6774L12.287 12.917ZM12.3763 12.243L11.5731 11.7779L11.8412 11.3149H12.3763V12.243ZM14.128 9.20847L14.9733 9.59172L14.9551 9.63191L14.9331 9.67019L14.128 9.20847ZM14.2032 9.04021L13.3551 8.66308L13.3551 8.66307L14.2032 9.04021ZM14.2774 8.84965L15.1523 9.15953L15.1522 9.15978L14.2774 8.84965ZM20.9962 10.3678L20.0681 10.3678V10.3678H20.9962ZM20.9964 15.7793L21.9245 15.7792V15.7793H20.9964ZM20.7082 16.4762L21.3651 17.1319L21.3645 17.1325L20.7082 16.4762ZM20.0111 16.7647V17.6928H16.7321L19.5247 15.9743L20.0111 16.7647ZM17.4948 7.09453V6.16644H18.7252L18.3872 7.3495L17.4948 7.09453ZM14.7709 9.02474L15.6457 9.33466L15.645 9.33666L14.7709 9.02474ZM14.6817 9.25302L15.5296 9.63047L15.5294 9.63096L14.6817 9.25302ZM14.5579 9.50081L15.2568 10.1115L14.6496 10.8063L13.9513 10.2032L14.5579 9.50081ZM14.5543 9.49769L13.7342 9.06309L14.2796 8.03413L15.1609 8.79529L14.5543 9.49769ZM12.8296 12.505L13.6333 12.9692L13.6329 12.9698L12.8296 12.505ZM12.7927 12.7813L11.8965 13.0226L11.8957 13.0197L12.7927 12.7813ZM12.9622 13.0025L12.5 13.8073L12.4982 13.8063L12.9622 13.0025ZM13.7268 12.7972L12.9218 12.3352L12.9231 12.333L13.7268 12.7972ZM14.7204 11.0769L13.9167 10.6127L13.9173 10.6118L14.7204 11.0769ZM15.0149 10.9552L14.7748 11.8517L14.7725 11.8511L15.0149 10.9552ZM15.6381 17.1072L15.5891 18.0341L15.5772 18.0333L15.6381 17.1072ZM15.9974 16.9733L16.6537 17.6295L16.6531 17.6301L15.9974 16.9733ZM16.656 13.1098H17.5841V13.1098L16.656 13.1098ZM16.6559 17.4507H15.7278V17.4507L16.6559 17.4507ZM17.4443 17.7775L18.1012 18.4332L18.1 18.4344L17.4443 17.7775ZM18.1029 13.1098H19.031V13.1098L18.1029 13.1098ZM18.1028 16.6061H17.1747V16.606L18.1028 16.6061ZM18.8914 16.9729L19.5471 17.6298L19.5464 17.6304L18.8914 16.9729ZM19.55 13.1096H20.4781V13.1097L19.55 13.1096ZM19.5497 15.7794H18.6216V15.7793L19.5497 15.7794ZM20.3377 16.1064L20.9939 16.7626L20.9933 16.7633L20.3377 16.1064ZM20.4726 15.7794H19.5445V15.7793L20.4726 15.7794ZM20.4728 10.3679H21.4009V10.3679L20.4728 10.3679ZM17.4948 7.09458V8.02268H16.2644L16.6024 6.83962L17.4948 7.09458ZM20.0112 17.6928C19.6694 17.6928 19.3643 17.5982 19.1111 17.4624L19.9883 15.8265C20.0003 15.833 20.0079 15.8354 20.0109 15.8362C20.0135 15.8369 20.0131 15.8366 20.0112 15.8366V17.6928ZM20.4778 16.6445V16.6464H18.6216V16.6445H20.4778ZM20.4778 16.6464C20.4778 17.1555 20.278 17.64 19.9166 18.0004L18.6058 16.6861C18.6125 16.6795 18.6158 16.6738 18.6177 16.6692C18.6196 16.6646 18.6216 16.6574 18.6216 16.6464H20.4778ZM19.9175 17.9995C19.5573 18.3597 19.0737 18.5598 18.5644 18.5598V16.7036C18.5751 16.7036 18.5821 16.7017 18.5868 16.6997C18.5916 16.6978 18.5977 16.6943 18.605 16.687L19.9175 17.9995ZM18.5644 18.5598C18.2182 18.5598 17.9093 18.463 17.6532 18.3235L18.5409 16.6933C18.553 16.6999 18.5606 16.7024 18.5637 16.7032C18.5663 16.704 18.5661 16.7036 18.5644 16.7036V18.5598ZM19.0235 17.5626C18.9968 18.0194 18.8115 18.4624 18.4711 18.8032L17.1579 17.4914C17.1613 17.488 17.1633 17.4849 17.165 17.4811C17.1668 17.4769 17.1697 17.4684 17.1705 17.4542L19.0235 17.5626ZM18.4707 18.8036C18.1105 19.1638 17.6269 19.3639 17.1175 19.3639V17.5077C17.1283 17.5077 17.1353 17.5057 17.1401 17.5038C17.1448 17.5018 17.151 17.4983 17.1582 17.4911L18.4707 18.8036ZM17.1175 19.3639C16.0929 19.3639 15.2707 18.5597 15.2115 17.5633L17.0644 17.4532C17.0653 17.469 17.0718 17.4828 17.0832 17.4937C17.0888 17.4991 17.0945 17.5025 17.0994 17.5045C17.1037 17.5062 17.1092 17.5077 17.1175 17.5077V19.3639ZM16.5792 18.3247C16.2795 18.4867 15.924 18.5802 15.5443 18.5558L15.6633 16.7034C15.6633 16.7034 15.6653 16.7036 15.6702 16.7025C15.6754 16.7012 15.6845 16.6983 15.6967 16.6918L16.5792 18.3247ZM15.5431 18.5557C14.5126 18.4881 13.7572 17.6118 13.7572 16.6161H15.6134C15.6134 16.6475 15.6248 16.6716 15.6391 16.6874C15.653 16.7028 15.6624 16.7034 15.6645 16.7035L15.5431 18.5557ZM13.7572 16.6161V12.1845H15.6134V16.6161H13.7572ZM15.4891 12.6484L14.9845 13.5227L13.3769 12.5947L13.8815 11.7205L15.4891 12.6484ZM14.9853 13.5212C14.6267 14.1451 13.9591 14.5288 13.2413 14.5288V12.6726C13.2982 12.6726 13.3502 12.641 13.376 12.5962L14.9853 13.5212ZM13.2413 14.5288C12.8903 14.5288 12.5449 14.4368 12.2395 14.2618L13.1624 12.6513C13.1873 12.6656 13.2148 12.6726 13.2413 12.6726V14.5288ZM12.2355 14.2595C11.8188 14.0179 11.5155 13.6248 11.3904 13.1566L13.1837 12.6774C13.1828 12.6743 13.1805 12.6687 13.1761 12.6628C13.1716 12.6571 13.1675 12.6542 13.1664 12.6536L12.2355 14.2595ZM11.3907 13.1576C11.2651 12.6897 11.3308 12.1963 11.5731 11.7779L13.1794 12.708C13.1807 12.7057 13.1831 12.7005 13.1841 12.693C13.1851 12.6854 13.1842 12.6794 13.1834 12.6764L11.3907 13.1576ZM12.3763 11.3149C11.921 11.4342 11.5802 11.7658 11.5777 11.7701C11.5768 11.7715 11.5756 11.7737 11.5752 11.7743C11.5749 11.7747 11.5745 11.7754 11.5744 11.7756C11.5743 11.7758 11.5742 11.7761 11.5741 11.7761C11.574 11.7764 11.574 11.7763 11.5744 11.7757C11.575 11.7746 11.5761 11.7728 11.5776 11.7701C11.5807 11.7648 11.5852 11.7569 11.5913 11.7465C11.6034 11.7255 11.6211 11.6948 11.6438 11.6556C11.6891 11.5771 11.754 11.4648 11.8322 11.3294C11.9885 11.0586 12.198 10.6958 12.4107 10.3275C12.8367 9.58965 13.2735 8.833 13.323 8.74674L14.9331 9.67019C14.8819 9.75954 14.4428 10.5201 14.0182 11.2556C13.8055 11.624 13.596 11.9869 13.4396 12.2577C13.3614 12.3931 13.2965 12.5055 13.2511 12.584C13.2284 12.6233 13.2106 12.6541 13.1984 12.6752C13.1923 12.6857 13.1876 12.6939 13.1844 12.6994C13.1828 12.7022 13.1815 12.7044 13.1805 12.7061C13.1801 12.7069 13.1795 12.7078 13.179 12.7088C13.1788 12.7091 13.1782 12.7101 13.1775 12.7113C13.177 12.7121 13.1757 12.7143 13.1749 12.7158C13.1723 12.7201 12.8315 13.0517 12.3763 13.1711V11.3149ZM13.2828 8.82521C13.293 8.80268 13.3254 8.73003 13.3551 8.66308L15.0512 9.41734C15.0229 9.48093 14.987 9.56145 14.9733 9.59172L13.2828 8.82521ZM13.3551 8.66307C13.368 8.63407 13.3823 8.59701 13.4027 8.53952L15.1522 9.15978C15.127 9.23087 15.0937 9.32172 15.0512 9.41735L13.3551 8.66307ZM13.4026 8.53977C14.0312 6.76516 15.6134 5.64289 17.4948 5.64289V7.49908C16.4028 7.49908 15.5194 8.12302 15.1523 9.15953L13.4026 8.53977ZM17.4948 5.64289C20.0074 5.64289 21.9243 7.83383 21.9243 10.3678H20.0681C20.0681 8.71457 18.8436 7.49908 17.4948 7.49908V5.64289ZM21.9243 10.3677L21.9245 15.7792L20.0683 15.7793L20.0681 10.3678L21.9243 10.3677ZM21.9245 15.7793C21.9245 16.2882 21.7248 16.7715 21.3651 17.1319L20.0514 15.8206C20.0587 15.8132 20.0623 15.807 20.0643 15.8021C20.0663 15.7972 20.0683 15.7901 20.0683 15.7793H21.9245ZM21.3645 17.1325C21.0042 17.4928 20.5206 17.6928 20.0111 17.6928V15.8366C20.022 15.8366 20.0292 15.8346 20.0339 15.8327C20.0386 15.8307 20.0447 15.8272 20.052 15.82L21.3645 17.1325ZM19.5247 15.9743L19.5247 15.9743L20.4976 17.5551L20.4975 17.5551L19.5247 15.9743ZM17.4948 8.02262C16.6124 8.02262 15.9433 8.49467 15.6457 9.33466L13.8961 8.71482C14.4549 7.13757 15.8222 6.16644 17.4948 6.16644V8.02262ZM15.645 9.33666C15.6157 9.41876 15.5777 9.52244 15.5296 9.63047L13.8338 8.87556C13.8523 8.83403 13.8713 8.78422 13.8968 8.71282L15.645 9.33666ZM15.5294 9.63096C15.4869 9.72629 15.4512 9.80679 15.424 9.86131C15.4071 9.89516 15.3797 9.94731 15.34 10.0051C15.2998 10.0636 15.26 10.1078 15.2568 10.1115L13.859 8.89016C13.8612 8.88766 13.8605 8.88847 13.8594 8.88975C13.8579 8.8914 13.8543 8.8956 13.8496 8.90137C13.8447 8.90735 13.8385 8.91507 13.8316 8.92424C13.8245 8.9335 13.8174 8.94335 13.8103 8.95374C13.7957 8.9749 13.7845 8.99343 13.7766 9.00745C13.7691 9.02053 13.7646 9.02959 13.7636 9.03163C13.7625 9.03373 13.7632 9.03249 13.7663 9.02574C13.7694 9.0192 13.7737 9.00978 13.7799 8.99606C13.7861 8.98247 13.7934 8.96605 13.8025 8.94576C13.8116 8.9255 13.8219 8.90228 13.8341 8.87507L15.5294 9.63096ZM13.9513 10.2032L13.9477 10.2001L15.1609 8.79529L15.1645 8.79841L13.9513 10.2032ZM15.3743 9.9323C15.2291 10.2064 14.8144 10.9241 13.6333 12.9692L12.0259 12.0408C13.2236 9.96703 13.6099 9.29772 13.7342 9.06309L15.3743 9.9323ZM13.6329 12.9698C13.7071 12.8415 13.7278 12.6867 13.6896 12.5429L11.8957 13.0197C11.8077 12.6884 11.8543 12.3374 12.0263 12.0402L13.6329 12.9698ZM13.6889 12.54C13.6507 12.3982 13.5568 12.2741 13.4262 12.1988L12.4982 13.8063C12.2001 13.6342 11.9852 13.3521 11.8965 13.0226L13.6889 12.54ZM13.4245 12.1978C13.3189 12.1371 13.2161 12.1375 13.1452 12.1566C13.0745 12.1756 12.9839 12.2272 12.9218 12.3352L14.5317 13.2592C14.1272 13.964 13.2028 14.2111 12.5 13.8073L13.4245 12.1978ZM12.9231 12.333L13.9167 10.6127L15.5241 11.5411L14.5304 13.2614L12.9231 12.333ZM13.9173 10.6118C14.1854 10.1489 14.7325 9.91733 15.2574 10.0594L14.7725 11.8511C15.0671 11.9308 15.3742 11.7999 15.5235 11.5421L13.9173 10.6118ZM15.2551 10.0588C15.7758 10.1983 16.137 10.6701 16.137 11.2081H14.2809C14.2809 11.5093 14.483 11.7736 14.7748 11.8517L15.2551 10.0588ZM16.137 11.2081V16.6163H14.2809V11.2081H16.137ZM16.137 16.6163C16.137 16.5105 16.0979 16.4144 16.0335 16.3408C15.9693 16.2673 15.856 16.1915 15.6991 16.1811L15.5772 18.0333C14.7959 17.9819 14.2809 17.3013 14.2809 16.6163H16.137ZM15.6871 16.1804C15.5775 16.1746 15.4435 16.2148 15.3417 16.3164L16.6531 17.6301C16.3601 17.9226 15.9716 18.0543 15.5891 18.034L15.6871 16.1804ZM15.3412 16.317C15.2531 16.4051 15.2041 16.5257 15.2041 16.6467H17.0603C17.0603 17.0154 16.9156 17.3676 16.6537 17.6295L15.3412 16.317ZM15.2041 16.6467V13.1098H17.0603V16.6467H15.2041ZM15.2041 13.1098C15.2041 12.4525 15.7369 11.9198 16.3941 11.9198V13.776C16.7621 13.776 17.0603 13.4777 17.0603 13.1098H15.2041ZM16.3941 11.9198C17.051 11.9198 17.5841 12.452 17.5841 13.1098H15.7279C15.7279 13.4779 16.0266 13.776 16.3941 13.776V11.9198ZM17.5841 13.1098L17.584 17.4507L15.7278 17.4507L15.7279 13.1097L17.5841 13.1098ZM17.584 17.4507C17.584 17.1926 17.3756 16.9842 17.1175 16.9842V18.8404C16.3504 18.8404 15.7278 18.2178 15.7278 17.4507H17.584ZM17.1175 16.9842C16.9967 16.9842 16.8766 17.0329 16.7887 17.1206L18.1 18.4344C17.8379 18.696 17.4856 18.8404 17.1175 18.8404V16.9842ZM16.7875 17.1219C16.6997 17.2098 16.651 17.3299 16.651 17.4507H18.5072C18.5072 17.8188 18.3628 18.1711 18.1012 18.4332L16.7875 17.1219ZM16.651 17.4507V13.1098H18.5072V17.4507H16.651ZM16.651 13.1098C16.651 12.4529 17.1833 11.9198 17.841 11.9198V13.7759C18.2092 13.7759 18.5072 13.4773 18.5072 13.1098H16.651ZM17.841 11.9198C18.4979 11.9198 19.031 12.452 19.031 13.1098H17.1748C17.1748 13.4779 17.4735 13.7759 17.841 13.7759V11.9198ZM19.031 13.1098L19.0309 16.6061L17.1747 16.606L17.1748 13.1097L19.031 13.1098ZM19.0309 16.6061V16.6467H17.1747V16.6061H19.0309ZM19.0309 16.6467C19.0309 16.3881 18.822 16.1801 18.5646 16.1801V18.0363C17.7978 18.0363 17.1747 17.4141 17.1747 16.6467H19.0309ZM18.5646 16.1801C18.4412 16.1801 18.3219 16.2303 18.2364 16.3154L19.5464 17.6304C19.2858 17.89 18.9349 18.0363 18.5646 18.0363V16.1801ZM18.2358 16.316C18.147 16.4046 18.0981 16.5257 18.0981 16.6466H19.9543C19.9543 17.015 19.8097 17.3677 19.5471 17.6298L18.2358 16.316ZM18.0981 16.6466V13.1096H19.9543V16.6466H18.0981ZM18.0981 13.1096C18.0981 12.4527 18.6304 11.9196 19.2881 11.9196V13.7758C19.6562 13.7758 19.9543 13.4771 19.9543 13.1096H18.0981ZM19.2881 11.9196C19.9449 11.9196 20.4781 12.4518 20.4781 13.1096H18.6219C18.6219 13.4777 18.9206 13.7758 19.2881 13.7758V11.9196ZM20.4781 13.1097L20.4778 15.7795L18.6216 15.7793L18.6219 13.1095L20.4781 13.1097ZM20.4778 15.7794C20.4778 15.5219 20.2698 15.3131 20.0111 15.3131V17.1693C19.2438 17.1693 18.6216 16.5462 18.6216 15.7794H20.4778ZM20.0111 15.3131C19.8894 15.3131 19.7693 15.3624 19.682 15.4495L20.9933 16.7633C20.7322 17.0239 20.3805 17.1693 20.0111 17.1693V15.3131ZM19.6814 15.4501C19.593 15.5385 19.5445 15.6591 19.5445 15.7794H21.4007C21.4007 16.1469 21.2568 16.4998 20.9939 16.7626L19.6814 15.4501ZM19.5445 15.7793L19.5447 10.3679L21.4009 10.3679L21.4007 15.7794L19.5445 15.7793ZM19.5447 10.3679C19.5447 8.99115 18.5437 8.02268 17.4948 8.02268V6.16649C19.7302 6.16649 21.4009 8.13517 21.4009 10.3679H19.5447ZM16.6024 6.83962L16.6025 6.83956L18.3872 7.3495L18.3872 7.34955L16.6024 6.83962Z" fill="#4CAF4F" mask="url(#path-1-inside-1_211_2338)"/>
<path d="M11.5286 21.7395C11.4043 21.8143 11.2436 21.7739 11.1693 21.6498C11.0948 21.5258 11.1352 21.3649 11.259 21.2905M11.5286 21.7395L13.7912 18.695C14.0098 18.5636 14.2981 18.6154 14.4329 18.8104M11.5286 21.7395L14.5614 19.92H14.5616L14.5619 19.9198M11.5286 21.7395L15.726 20.2981C15.8319 20.2345 15.9067 20.1338 15.9365 20.0143M11.259 21.2905L14.292 19.471C14.3979 19.4073 14.4729 19.3065 14.5027 19.1873M11.259 21.2905L11.2897 21.3417L11.3937 21.515L11.3939 21.5154L11.4407 21.5935L11.4977 21.6884L11.4978 21.6883L11.4979 21.6883L11.4981 21.6882M11.259 21.2905L11.2897 21.3416M14.5027 19.1873C14.5355 19.0564 14.5106 18.9226 14.4329 18.8104M14.5027 19.1873L14.5776 19.206L14.5704 19.0521C14.5655 18.9462 14.5345 18.8522 14.4821 18.7767L14.482 18.7765L14.4329 18.8104M14.5027 19.1873L14.5776 19.206L14.585 19.3648L14.4331 19.4559H14.4329L14.3227 19.5221L14.3227 19.5221L14.3227 19.5221L11.2898 21.3416M14.4329 18.8104L14.4819 18.7764L12.2426 22.9289C12.3379 22.8716 12.3693 22.7478 12.3116 22.6516C12.2544 22.5563 12.1301 22.5249 12.0344 22.5823L15.0672 20.7629C15.1369 20.721 15.21 20.6895 15.2846 20.6677L15.755 20.3465L15.755 20.3465L15.7809 20.3288C15.8912 20.2535 15.9643 20.149 15.9943 20.0288L15.9943 20.0287L15.9365 20.0143M11.2898 21.3416C11.3853 21.2845 11.5095 21.3154 11.5671 21.4109C11.5672 21.4111 11.5673 21.4113 11.5675 21.4115C11.6247 21.5076 11.5931 21.631 11.4981 21.6882M11.2898 21.3416C11.2898 21.3416 11.2898 21.3416 11.2897 21.3416M11.2898 21.3416L11.2897 21.3416M11.4981 21.6882L14.5307 19.8689L14.5308 19.8689L14.5309 19.8688C14.531 19.8687 14.5311 19.8687 14.5312 19.8686L14.5614 19.919L14.5616 19.9193L14.5619 19.9198M11.4981 21.6882L11.3941 21.5152L11.3939 21.5149L11.3587 21.4564L11.2897 21.3416M14.5619 19.9198V19.8493C14.6205 19.811 14.674 19.7666 14.7218 19.717L15.2211 19.4564L15.2211 19.4564L15.2487 19.442C15.329 19.4001 15.4099 19.3805 15.4868 19.3805C15.5283 19.3805 15.5712 19.3857 15.6149 19.3965C15.6149 19.3965 15.6149 19.3965 15.615 19.3965C15.6151 19.3965 15.6153 19.3966 15.6154 19.3966L15.7131 19.0042M14.5619 19.9198L15.251 19.5064C15.3566 19.4431 15.4803 19.4246 15.6005 19.4544C15.72 19.4842 15.8209 19.559 15.8844 19.6648C15.9478 19.7707 15.9664 19.8949 15.9365 20.0143M15.7131 19.0042C15.7131 19.0042 15.7131 19.0042 15.713 19.0042M15.7131 19.0042C15.9522 19.064 16.1556 19.2149 16.2822 19.4259L16.3333 19.3953M15.7131 19.0042L15.7275 18.9463M15.713 19.0042L15.615 19.3965C15.7508 19.4304 15.8633 19.5138 15.9353 19.634C15.9354 19.634 15.9354 19.6341 15.9355 19.6342C15.9355 19.6342 15.9355 19.6342 15.9355 19.6342C16.0077 19.7549 16.0281 19.8934 15.9943 20.0286L15.9943 20.0287L15.9365 20.0143M15.713 19.0042C15.713 19.0042 15.7129 19.0042 15.7129 19.0042L15.7123 19.004C15.6406 18.9862 15.568 18.9771 15.4957 18.9765M15.713 19.0042L15.7275 18.9463M15.2754 21.1095L15.537 20.9526L15.8068 21.1117C15.8876 21.1594 15.9486 21.2191 15.9899 21.2881L15.9901 21.2883C15.9901 21.2884 15.9902 21.2884 15.9902 21.2885L15.9393 21.3191M15.2754 21.1095L16.0493 21.6832C16.083 21.5475 16.0624 21.4091 15.9902 21.2886L15.9393 21.3191M15.2754 21.1095L15.3061 21.1607M15.2754 21.1095L15.2754 21.1096L15.3061 21.1607M15.9393 21.3191C15.8083 21.1009 15.5241 21.0299 15.3061 21.1607M15.9393 21.3191C16.0029 21.4249 16.0215 21.5492 15.9916 21.6688L15.3061 21.1607M16.3815 21.0388C16.3837 21.0424 16.3859 21.0461 16.3881 21.0497L16.3815 21.0388ZM16.3815 21.0388C16.3658 21.0511 16.3499 21.063 16.3337 21.0746C16.3348 21.0764 16.3359 21.0781 16.3369 21.0799L16.3815 21.0388ZM16.3092 20.3311C16.3427 20.267 16.3688 20.1985 16.3867 20.1268L16.3092 20.3311ZM16.3092 20.3311C16.3259 20.3414 16.3424 20.3521 16.3588 20.3632C16.396 20.2939 16.4249 20.2196 16.4445 20.1412C16.5083 19.8861 16.4688 19.6213 16.3333 19.3953M16.3092 20.3311L16.3867 20.1267C16.4465 19.8876 16.4088 19.6373 16.2824 19.4263L16.2823 19.4261C16.2823 19.426 16.2822 19.426 16.2822 19.426L16.3333 19.3953M16.3333 19.3953C16.198 19.1697 15.9828 19.0101 15.7275 18.9463M15.7275 18.9463L15.4904 18.9165M15.4904 18.9165C15.4926 18.9365 15.4943 18.9565 15.4957 18.9765M15.4904 18.9165C15.4892 18.9165 15.488 18.9165 15.4868 18.9165C15.3298 18.9165 15.1757 18.9567 15.034 19.0306M15.4904 18.9165L15.034 19.0306M15.4957 18.9765C15.4964 18.9874 15.497 18.9982 15.4975 19.0091L15.4868 19.0096L15.1987 19.023M15.4957 18.9765C15.4927 18.9765 15.4897 18.9764 15.4868 18.9764C15.3888 18.9765 15.2917 18.9922 15.1987 19.023M15.1987 19.023L15.034 19.0306M15.1987 19.023C15.1514 19.0386 15.1052 19.0581 15.0605 19.0814C15.0443 19.0899 15.0283 19.0989 15.0125 19.1084L15.0123 19.1085L14.9793 19.1283M15.034 19.0306L14.7695 19.2541L14.7696 19.2541L14.9529 19.3C14.9529 19.3 14.9529 19.3 14.9529 19.3001C14.9672 19.243 14.9759 19.1855 14.9793 19.1283M15.034 19.0306L14.9631 18.8949M15.034 19.0306C15.0266 18.8725 14.985 18.7168 14.905 18.5778C14.8868 18.5859 14.8688 18.5944 14.8509 18.6032M14.9793 19.1283C14.9812 19.0964 14.9814 19.0647 14.98 19.0331C14.9779 18.9866 14.9722 18.9404 14.9631 18.8949M14.9793 19.1283L14.9631 18.8949M14.9631 18.8949L14.8193 18.6192C14.8298 18.6138 14.8403 18.6084 14.8509 18.6032M14.9631 18.8949L14.8144 18.5462C14.8273 18.5649 14.8395 18.5839 14.8509 18.6032M14.9631 18.8949C14.9428 18.7929 14.905 18.6944 14.8509 18.6032M16.0426 20.712L16.1219 20.5776C16.0875 20.6097 16.0506 20.6394 16.0113 20.6662C15.9961 20.6765 15.9807 20.6865 15.9649 20.696L15.9647 20.6961L15.9311 20.7162L16.0426 20.712ZM8.63175 18.5524L8.57899 18.5246C8.56929 18.5421 8.54514 18.5856 8.50948 18.6499C8.50064 18.6658 8.49111 18.683 8.48091 18.7013C8.49909 18.7104 8.51743 18.7184 8.5358 18.7253C8.56718 18.6688 8.59915 18.6112 8.63175 18.5524ZM12.7787 23.8231C12.7787 23.8231 12.7786 23.8231 12.7786 23.8231L12.7787 23.8231Z" fill="#4CAF4F" stroke="#4CAF4F" stroke-width="0.928093"/>
<path d="M24.4806 19.3886L24.4805 19.3886L24.4806 19.3886ZM24.4806 19.3886C24.3833 19.2144 24.3872 18.9999 24.4902 18.8282L24.4806 19.3886ZM18.7389 18.9763C18.6664 18.9769 18.5935 18.9861 18.5216 19.0041L18.7389 18.9763ZM18.7389 18.9763C18.7403 18.9564 18.7421 18.9364 18.7442 18.9164L18.7389 18.9763ZM24.0629 19.714L24.0235 19.643L24.0629 19.714ZM22.9447 21.3415C22.9446 21.3415 22.9445 21.3414 22.9444 21.3413L22.9446 21.3414L22.9447 21.3415ZM21.4559 23.8235C21.4558 23.8234 21.4557 23.8233 21.4556 23.8233L21.4559 23.8235ZM21.4554 23.8232L21.4555 23.8233L21.4554 23.8232Z" fill="#4CAF4F" stroke="#4CAF4F" stroke-width="0.928093"/>
</svg>
