<svg width="86" height="86" viewBox="0 0 86 86" fill="none" xmlns="http://www.w3.org/2000/svg">
<mask id="path-1-inside-1_4357_116" fill="white">
<path d="M0 16C0 7.16345 7.16344 0 16 0H70C78.8366 0 86 7.16344 86 16V70C86 78.8366 78.8366 86 70 86H16C7.16345 86 0 78.8366 0 70V16Z"/>
</mask>
<path d="M0 16C0 7.16345 7.16344 0 16 0H70C78.8366 0 86 7.16344 86 16V70C86 78.8366 78.8366 86 70 86H16C7.16345 86 0 78.8366 0 70V16Z" fill="#037EFF"/>
<path d="M16 1H70V-1H16V1ZM85 16V70H87V16H85ZM70 85H16V87H70V85ZM1 70V16H-1V70H1ZM16 85C7.71573 85 1 78.2843 1 70H-1C-1 79.3888 6.61116 87 16 87V85ZM85 70C85 78.2843 78.2843 85 70 85V87C79.3888 87 87 79.3888 87 70H85ZM70 1C78.2843 1 85 7.71573 85 16H87C87 6.61116 79.3888 -1 70 -1V1ZM16 -1C6.61116 -1 -1 6.61116 -1 16H1C1 7.71573 7.71573 1 16 1V-1Z" fill="white" fill-opacity="0.3" mask="url(#path-1-inside-1_4357_116)"/>
<path d="M36.2532 27.249H31.7532C30.5597 27.249 29.4151 27.7231 28.5712 28.567C27.7273 29.411 27.2532 30.5555 27.2532 31.749V58.749C27.2532 59.9425 27.7273 61.0871 28.5712 61.931C29.4151 62.7749 30.5597 63.249 31.7532 63.249H54.2532C55.4466 63.249 56.5912 62.7749 57.4352 61.931C58.2791 61.0871 58.7532 59.9425 58.7532 58.749V31.749C58.7532 30.5555 58.2791 29.411 57.4352 28.567C56.5912 27.7231 55.4466 27.249 54.2532 27.249H49.7532M36.2532 27.249C36.2532 28.4425 36.7273 29.5871 37.5712 30.431C38.4151 31.2749 39.5597 31.749 40.7532 31.749H45.2532C46.4466 31.749 47.5912 31.2749 48.4352 30.431C49.2791 29.5871 49.7532 28.4425 49.7532 27.249M36.2532 27.249C36.2532 26.0555 36.7273 24.911 37.5712 24.067C38.4151 23.2231 39.5597 22.749 40.7532 22.749H45.2532C46.4466 22.749 47.5912 23.2231 48.4352 24.067C49.2791 24.911 49.7532 26.0555 49.7532 27.249M43.0032 42.999H49.7532M43.0032 51.999H49.7532M36.2532 42.999H36.2757M36.2532 51.999H36.2757" stroke="white" stroke-width="3" stroke-linecap="round" stroke-linejoin="round"/>
</svg>
