<svg width="44" height="44" viewBox="0 0 44 44" fill="none" xmlns="http://www.w3.org/2000/svg">
<path d="M3.06802 3.06802C2.22411 3.91193 1.75 5.05653 1.75 6.25V8.5C1.75 27.139 16.861 42.25 35.5 42.25H37.75C38.9435 42.25 40.0881 41.7759 40.932 40.932C41.7759 40.0881 42.25 38.9435 42.25 37.75V30.3722C42.2501 29.8998 42.1015 29.4394 41.8253 29.0561C41.5491 28.6729 41.1592 28.3863 40.711 28.237L30.6017 24.8665C30.088 24.6957 29.5299 24.7159 29.0298 24.9234C28.5297 25.1309 28.1212 25.5117 27.8792 25.996L25.3368 31.0743C19.8275 28.585 15.415 24.1725 12.9257 18.6632L18.004 16.1208C18.4883 15.8788 18.8691 15.4703 19.0766 14.9702C19.2841 14.4701 19.3043 13.912 19.1335 13.3983L15.763 3.289C15.6138 2.84115 15.3276 2.45156 14.9448 2.17536C14.562 1.89917 14.102 1.75036 13.63 1.75H6.25C5.05653 1.75 3.91193 2.22411 3.06802 3.06802Z" stroke="white" stroke-width="3" stroke-linecap="round" stroke-linejoin="round"/>
</svg>
