<svg width="86" height="86" viewBox="0 0 86 86" fill="none" xmlns="http://www.w3.org/2000/svg">
<mask id="path-1-inside-1_4357_107" fill="white">
<path d="M0 16C0 7.16345 7.16344 0 16 0H70C78.8366 0 86 7.16344 86 16V70C86 78.8366 78.8366 86 70 86H16C7.16345 86 0 78.8366 0 70V16Z"/>
</mask>
<path d="M0 16C0 7.16345 7.16344 0 16 0H70C78.8366 0 86 7.16344 86 16V70C86 78.8366 78.8366 86 70 86H16C7.16345 86 0 78.8366 0 70V16Z" fill="#FF0303"/>
<path d="M16 1H70V-1H16V1ZM85 16V70H87V16H85ZM70 85H16V87H70V85ZM1 70V16H-1V70H1ZM16 85C7.71573 85 1 78.2843 1 70H-1C-1 79.3888 6.61116 87 16 87V85ZM85 70C85 78.2843 78.2843 85 70 85V87C79.3888 87 87 79.3888 87 70H85ZM70 1C78.2843 1 85 7.71573 85 16H87C87 6.61116 79.3888 -1 70 -1V1ZM16 -1C6.61116 -1 -1 6.61116 -1 16H1C1 7.71573 7.71573 1 16 1V-1Z" fill="white" fill-opacity="0.3" mask="url(#path-1-inside-1_4357_107)"/>
<path d="M24.068 24.068C23.2241 24.9119 22.75 26.0565 22.75 27.25V29.5C22.75 48.139 37.861 63.25 56.5 63.25H58.75C59.9435 63.25 61.0881 62.7759 61.932 61.932C62.7759 61.0881 63.25 59.9435 63.25 58.75V51.3722C63.2501 50.8998 63.1015 50.4394 62.8253 50.0561C62.5491 49.6729 62.1592 49.3863 61.711 49.237L51.6017 45.8665C51.088 45.6957 50.5299 45.7159 50.0298 45.9234C49.5297 46.1309 49.1212 46.5117 48.8792 46.996L46.3368 52.0743C40.8275 49.585 36.415 45.1725 33.9257 39.6632L39.004 37.1208C39.4883 36.8788 39.8691 36.4703 40.0766 35.9702C40.2841 35.4701 40.3043 34.912 40.1335 34.3983L36.763 24.289C36.6138 23.8412 36.3276 23.4516 35.9448 23.1754C35.562 22.8992 35.102 22.7504 34.63 22.75H27.25C26.0565 22.75 24.9119 23.2241 24.068 24.068Z" stroke="white" stroke-width="3" stroke-linecap="round" stroke-linejoin="round"/>
</svg>
