<svg width="36" height="44" viewBox="0 0 36 44" fill="none" xmlns="http://www.w3.org/2000/svg">
<path d="M24.364 17.114C26.0518 15.4261 27 13.1369 27 10.75C27 8.36305 26.0518 6.07387 24.364 4.38604C22.6761 2.69821 20.3869 1.75 18 1.75C15.6131 1.75 13.3239 2.69821 11.636 4.38604C9.94821 6.07387 9 8.36305 9 10.75C9 13.1369 9.94821 15.4261 11.636 17.114C13.3239 18.8018 15.6131 19.75 18 19.75C20.3869 19.75 22.6761 18.8018 24.364 17.114Z" stroke="white" stroke-width="3" stroke-linecap="round" stroke-linejoin="round"/>
<path d="M6.86307 31.1131C9.81677 28.1594 13.8228 26.5 18 26.5C22.1772 26.5 26.1832 28.1594 29.1369 31.1131C32.0906 34.0668 33.75 38.0728 33.75 42.25H2.25C2.25 38.0728 3.90937 34.0668 6.86307 31.1131Z" stroke="white" stroke-width="3" stroke-linecap="round" stroke-linejoin="round"/>
</svg>
