<svg width="86" height="86" viewBox="0 0 86 86" fill="none" xmlns="http://www.w3.org/2000/svg">
<mask id="path-1-inside-1_4357_135" fill="white">
<path d="M0 16C0 7.16345 7.16344 0 16 0H70C78.8366 0 86 7.16344 86 16V70C86 78.8366 78.8366 86 70 86H16C7.16345 86 0 78.8366 0 70V16Z"/>
</mask>
<path d="M0 16C0 7.16345 7.16344 0 16 0H70C78.8366 0 86 7.16344 86 16V70C86 78.8366 78.8366 86 70 86H16C7.16345 86 0 78.8366 0 70V16Z" fill="#FFA200"/>
<path d="M16 1H70V-1H16V1ZM85 16V70H87V16H85ZM70 85H16V87H70V85ZM1 70V16H-1V70H1ZM16 85C7.71573 85 1 78.2843 1 70H-1C-1 79.3888 6.61116 87 16 87V85ZM85 70C85 78.2843 78.2843 85 70 85V87C79.3888 87 87 79.3888 87 70H85ZM70 1C78.2843 1 85 7.71573 85 16H87C87 6.61116 79.3888 -1 70 -1V1ZM16 -1C6.61116 -1 -1 6.61116 -1 16H1C1 7.71573 7.71573 1 16 1V-1Z" fill="white" fill-opacity="0.3" mask="url(#path-1-inside-1_4357_135)"/>
<path d="M49.364 38.114C51.0518 36.4261 52 34.1369 52 31.75C52 29.3631 51.0518 27.0739 49.364 25.386C47.6761 23.6982 45.3869 22.75 43 22.75C40.6131 22.75 38.3239 23.6982 36.636 25.386C34.9482 27.0739 34 29.3631 34 31.75C34 34.1369 34.9482 36.4261 36.636 38.114C38.3239 39.8018 40.6131 40.75 43 40.75C45.3869 40.75 47.6761 39.8018 49.364 38.114Z" stroke="white" stroke-width="3" stroke-linecap="round" stroke-linejoin="round"/>
<path d="M31.8631 52.1131C34.8168 49.1594 38.8228 47.5 43 47.5C47.1772 47.5 51.1832 49.1594 54.1369 52.1131C57.0906 55.0668 58.75 59.0728 58.75 63.25H27.25C27.25 59.0728 28.9094 55.0668 31.8631 52.1131Z" stroke="white" stroke-width="3" stroke-linecap="round" stroke-linejoin="round"/>
</svg>
