<svg width="34" height="34" viewBox="0 0 34 34" fill="none" xmlns="http://www.w3.org/2000/svg">
<g clip-path="url(#clip0_211_2046)">
<path fill-rule="evenodd" clip-rule="evenodd" d="M9.97907 3.14978C13.8233 3.14978 16.9398 6.26619 16.9398 10.1105V3.14978H23.9005C27.7447 3.14978 30.8612 6.26619 30.8612 10.1105C30.8612 13.9547 27.7447 17.0712 23.9005 17.0712C27.7447 17.0712 30.8612 20.1876 30.8612 24.0319C30.8612 25.9407 30.0928 27.6701 28.8485 28.9276L28.8224 28.9538L28.7993 28.9768C27.5415 30.2229 25.8109 30.9926 23.9005 30.9926C22.003 30.9926 20.2829 30.2334 19.0273 29.0021C19.011 28.9861 18.9947 28.97 18.9785 28.9538C18.9632 28.9386 18.9481 28.9233 18.933 28.9079C17.7001 27.6521 16.9398 25.9307 16.9398 24.0319C16.9398 27.8761 13.8233 30.9926 9.97907 30.9926C6.13478 30.9926 3.01837 27.8761 3.01837 24.0319V17.0712H9.97907C6.13478 17.0712 3.01837 13.9547 3.01837 10.1105C3.01837 6.26619 6.13478 3.14978 9.97907 3.14978ZM15.5476 10.1105C15.5476 13.1859 13.0545 15.679 9.97907 15.679V4.54192C13.0545 4.54192 15.5476 7.03505 15.5476 10.1105ZM29.469 24.0319C29.469 20.9564 26.9759 18.4633 23.9005 18.4633C20.825 18.4633 18.3319 20.9564 18.3319 24.0319H29.469ZM4.41051 18.4633V24.0319C4.41051 27.1073 6.90364 29.6004 9.97907 29.6004C13.0545 29.6004 15.5476 27.1073 15.5476 24.0319V18.4633H4.41051ZM18.3319 15.679V4.54192H23.9005C26.9759 4.54192 29.469 7.03505 29.469 10.1105C29.469 13.1859 26.9759 15.679 23.9005 15.679H18.3319Z" fill="#263238"/>
</g>
<defs>
<clipPath id="clip0_211_2046">
<rect width="27.8428" height="27.8428" fill="white" transform="translate(3.01837 3.14978)"/>
</clipPath>
</defs>
</svg>
