<svg width="16" height="17" viewBox="0 0 16 17" fill="none" xmlns="http://www.w3.org/2000/svg">
<path d="M12.8 4.30005L12.8001 4.30005C13.0808 4.3 13.351 4.40728 13.5552 4.59992C13.6823 4.71988 13.7779 4.86727 13.8359 5.02908L8.00002 7.94665L2.16416 5.02908C2.22213 4.86727 2.31773 4.71988 2.44487 4.59992C2.64907 4.40728 2.9192 4.3 3.19993 4.30005H3.20002L12.8 4.30005Z" fill="#4B5563" stroke="#4B5563"/>
<path d="M14.4 7.09448L7.99998 10.2945L1.59998 7.09448V11.8001C1.59998 12.2244 1.76855 12.6314 2.0686 12.9315C2.36866 13.2315 2.77563 13.4001 3.19998 13.4001H12.8C13.2243 13.4001 13.6313 13.2315 13.9313 12.9315C14.2314 12.6314 14.4 12.2244 14.4 11.8001V7.09448Z" fill="#4B5563"/>
</svg>
