<svg width="24" height="25" viewBox="0 0 24 25" fill="none" xmlns="http://www.w3.org/2000/svg">
<path fill-rule="evenodd" clip-rule="evenodd" d="M21.8278 6.27721C22.1692 6.62075 22.4143 7.04791 22.5387 7.51595C22.9987 9.24345 22.9987 12.8459 22.9987 12.8459C22.9987 12.8459 22.9987 16.4484 22.5387 18.1759C22.4143 18.644 22.1692 19.0711 21.8278 19.4147C21.4865 19.7582 21.0609 20.0061 20.5937 20.1334C18.8737 20.5959 11.9987 20.5959 11.9987 20.5959C11.9987 20.5959 5.12366 20.5959 3.40366 20.1334C2.93643 20.0061 2.51084 19.7582 2.1695 19.4147C1.82816 19.0711 1.58304 18.644 1.45866 18.1759C0.998657 16.4484 0.998657 12.8459 0.998657 12.8459C0.998657 12.8459 0.998657 9.24345 1.45866 7.51595C1.58304 7.04791 1.82816 6.62075 2.1695 6.27721C2.51084 5.93368 2.93643 5.68582 3.40366 5.55845C5.12366 5.09595 11.9987 5.09595 11.9987 5.09595C11.9987 5.09595 18.8737 5.09595 20.5937 5.55845C21.0609 5.68582 21.4865 5.93368 21.8278 6.27721ZM15.4987 12.846L9.74867 9.57473V16.1172L15.4987 12.846Z" fill="#4B5563"/>
</svg>
