<svg width="24" height="25" viewBox="0 0 24 25" fill="none" xmlns="http://www.w3.org/2000/svg">
<g clip-path="url(#clip0_4033_11409)">
<g clip-path="url(#clip1_4033_11409)">
<g clip-path="url(#clip2_4033_11409)">
<path d="M12.0055 3.34266C15.2123 3.34266 15.5921 3.35673 16.8532 3.41298C18.0253 3.46455 18.6582 3.66146 19.0801 3.82555C19.638 4.0412 20.0412 4.30375 20.4585 4.72099C20.8804 5.14294 21.1383 5.54143 21.3538 6.09932C21.518 6.52127 21.7149 7.15887 21.7665 8.32623C21.8227 9.59204 21.8368 9.97179 21.8368 13.1738C21.8368 16.3806 21.8227 16.7603 21.7665 18.0215C21.7149 19.1935 21.518 19.8264 21.3538 20.2484C21.1383 20.8062 20.8757 21.2095 20.4585 21.6267C20.0365 22.0487 19.638 22.3064 19.0801 22.5221C18.6582 22.6862 18.0206 22.8831 16.8532 22.9346C15.5874 22.9909 15.2076 23.005 12.0055 23.005C8.79886 23.005 8.41912 22.9909 7.158 22.9346C5.98594 22.8831 5.35303 22.6862 4.93109 22.5221C4.3732 22.3064 3.97001 22.044 3.55276 21.6267C3.13082 21.2048 2.87297 20.8062 2.65731 20.2484C2.49323 19.8264 2.29631 19.1888 2.24475 18.0215C2.18849 16.7556 2.17443 16.3759 2.17443 13.1738C2.17443 9.9671 2.18849 9.58735 2.24475 8.32623C2.29631 7.15418 2.49323 6.52127 2.65731 6.09932C2.87297 5.54143 3.13551 5.13825 3.55276 4.72099C3.9747 4.29906 4.3732 4.0412 4.93109 3.82555C5.35303 3.66146 5.99063 3.46455 7.158 3.41298C8.41912 3.35673 8.79886 3.34266 12.0055 3.34266ZM12.0055 1.1814C8.7473 1.1814 8.33942 1.19546 7.05954 1.25172C5.78434 1.30798 4.90766 1.51426 4.14816 1.80962C3.35586 2.11904 2.68544 2.52692 2.01971 3.19733C1.3493 3.86305 0.941426 4.53347 0.632004 5.32109C0.336647 6.08527 0.130366 6.95727 0.0741073 8.23246C0.0178488 9.51703 0.00378418 9.92491 0.00378418 13.1832C0.00378418 16.4415 0.0178488 16.8494 0.0741073 18.1293C0.130366 19.4045 0.336647 20.2812 0.632004 21.0407C0.941426 21.833 1.3493 22.5034 2.01971 23.1691C2.68544 23.8348 3.35586 24.2474 4.14348 24.5521C4.90766 24.8475 5.77965 25.0538 7.05485 25.1101C8.33473 25.1663 8.74261 25.1803 12.0009 25.1803C15.2592 25.1803 15.6671 25.1663 16.947 25.1101C18.2221 25.0538 19.0988 24.8475 19.8583 24.5521C20.6459 24.2474 21.3163 23.8348 21.9822 23.1691C22.6479 22.5034 23.0604 21.833 23.3652 21.0454C23.6604 20.2812 23.8668 19.4092 23.923 18.134C23.9793 16.8541 23.9934 16.4462 23.9934 13.1879C23.9934 9.9296 23.9793 9.52172 23.923 8.24184C23.8668 6.96664 23.6604 6.08996 23.3652 5.33046C23.0698 4.53347 22.6619 3.86305 21.9915 3.19733C21.3257 2.53161 20.6553 2.11904 19.8677 1.81431C19.1035 1.51895 18.2315 1.31267 16.9563 1.25641C15.6718 1.19546 15.2639 1.1814 12.0055 1.1814Z" fill="#4B5563"/>
<path d="M12.0027 7.01733C8.59912 7.01733 5.83777 9.77869 5.83777 13.1823C5.83777 16.586 8.59912 19.3473 12.0027 19.3473C15.4064 19.3473 18.1678 16.586 18.1678 13.1823C18.1678 9.77869 15.4064 7.01733 12.0027 7.01733ZM12.0027 17.1814C9.79461 17.1814 8.00372 15.3905 8.00372 13.1823C8.00372 10.9742 9.79461 9.18329 12.0027 9.18329C14.2109 9.18329 16.0018 10.9742 16.0018 13.1823C16.0018 15.3905 14.2109 17.1814 12.0027 17.1814Z" fill="#4B5563"/>
<path d="M19.8511 6.77498C19.8511 7.57198 19.2041 8.21427 18.4118 8.21427C17.6148 8.21427 16.9725 7.56729 16.9725 6.77498C16.9725 5.97798 17.6195 5.33569 18.4118 5.33569C19.2041 5.33569 19.8511 5.98267 19.8511 6.77498Z" fill="#4B5563"/>
</g>
</g>
</g>
<defs>
<clipPath id="clip0_4033_11409">
<rect width="24" height="24" fill="white" transform="translate(0 0.600098)"/>
</clipPath>
<clipPath id="clip1_4033_11409">
<rect width="24" height="25.08" fill="white" transform="translate(-0.00134277 0.599854)"/>
</clipPath>
<clipPath id="clip2_4033_11409">
<rect width="23.9896" height="25.08" fill="white" transform="translate(0.00512695 0.599609)"/>
</clipPath>
</defs>
</svg>
