<svg width="24" height="25" viewBox="0 0 24 25" fill="none" xmlns="http://www.w3.org/2000/svg">
<g clip-path="url(#clip0_4033_11405)">
<g clip-path="url(#clip1_4033_11405)">
<g clip-path="url(#clip2_4033_11405)">
<path d="M14.3311 15.9679H16.675C16.8527 14.835 17.027 13.7234 17.2051 12.5842H13.6543C13.6485 12.4925 13.6398 12.4226 13.6398 12.3533C13.6388 11.6672 13.6368 10.9811 13.6398 10.2951C13.6441 9.29125 14.2121 8.63188 15.2079 8.55182C15.8904 8.49702 16.5788 8.51982 17.2648 8.50862C17.4018 8.50622 17.5382 8.50862 17.6926 8.50862V5.5427C17.4129 5.50486 17.1221 5.45634 16.8294 5.42723C15.6958 5.31564 14.5607 5.19822 13.4339 5.48885C11.724 5.9294 10.5691 7.16519 10.3554 8.91668C10.2428 9.84097 10.2758 10.7837 10.2472 11.7177C10.2389 11.9913 10.2457 12.265 10.2457 12.5687H7.5469V15.9582H10.2297V24.5707C5.09618 23.8881 0.0369521 19.4768 -0.000915676 12.6667C-0.0368415 6.02546 5.2229 0.849012 11.525 0.60836C18.2232 0.352666 23.7655 5.58055 23.9907 12.2024C24.0975 15.3464 23.1572 18.1687 21.0798 20.5679C19.2815 22.645 17.0435 24.0002 14.3311 24.5994V15.9679Z" fill="#4B5563"/>
</g>
</g>
</g>
<defs>
<clipPath id="clip0_4033_11405">
<rect width="24" height="24" fill="white" transform="translate(0 0.600098)"/>
</clipPath>
<clipPath id="clip1_4033_11405">
<rect width="24" height="24" fill="white" transform="translate(-0.000366211 0.599854)"/>
</clipPath>
<clipPath id="clip2_4033_11405">
<rect width="24" height="24" fill="white" transform="translate(-0.000732422 0.599609)"/>
</clipPath>
</defs>
</svg>
